<mxfile host="app.diagrams.net" agent="Mozilla/5.0 (Windows NT 10.0; Win64; x64) AppleWebKit/537.36 (KHTML, like Gecko) Chrome/129.0.0.0 Safari/537.36 Edg/129.0.0.0" version="24.7.17">
  <diagram name="Page-1" id="rAe8x9y1USvAWaOu_ALp">
    <mxGraphModel dx="2316" dy="1362" grid="1" gridSize="10" guides="1" tooltips="1" connect="1" arrows="1" fold="1" page="1" pageScale="1" pageWidth="2339" pageHeight="3300" math="0" shadow="0">
      <root>
        <mxCell id="0" />
        <mxCell id="1" parent="0" />
        <mxCell id="tG8vpS88pGXPYlAyhWyV-2" value="" style="rounded=0;whiteSpace=wrap;html=1;rotation=90;" vertex="1" parent="1">
          <mxGeometry x="710" y="600" width="1350" height="910" as="geometry" />
        </mxCell>
        <mxCell id="tG8vpS88pGXPYlAyhWyV-3" value="Actor" style="shape=umlActor;verticalLabelPosition=bottom;verticalAlign=top;html=1;outlineConnect=0;" vertex="1" parent="1">
          <mxGeometry x="640" y="880" width="70" height="150" as="geometry" />
        </mxCell>
        <mxCell id="tG8vpS88pGXPYlAyhWyV-6" value="&lt;font style=&quot;font-size: 21px;&quot;&gt;Đăng Ký Học Phần&lt;/font&gt;" style="ellipse;whiteSpace=wrap;html=1;" vertex="1" parent="1">
          <mxGeometry x="1120" y="500" width="210" height="120" as="geometry" />
        </mxCell>
        <mxCell id="tG8vpS88pGXPYlAyhWyV-11" value="&lt;font style=&quot;font-size: 20px;&quot;&gt;Hủy Học Phần&lt;/font&gt;" style="ellipse;whiteSpace=wrap;html=1;" vertex="1" parent="1">
          <mxGeometry x="1110" y="650" width="210" height="120" as="geometry" />
        </mxCell>
        <mxCell id="tG8vpS88pGXPYlAyhWyV-12" value="&lt;font style=&quot;font-size: 21px;&quot;&gt;Xin Giấy Xác Nhận&lt;/font&gt;" style="ellipse;whiteSpace=wrap;html=1;" vertex="1" parent="1">
          <mxGeometry x="1110" y="820" width="210" height="120" as="geometry" />
        </mxCell>
        <mxCell id="tG8vpS88pGXPYlAyhWyV-13" value="&lt;font style=&quot;font-size: 21px;&quot;&gt;Thanh Toán Học Phí&lt;/font&gt;" style="ellipse;whiteSpace=wrap;html=1;" vertex="1" parent="1">
          <mxGeometry x="1110" y="1010" width="210" height="120" as="geometry" />
        </mxCell>
        <mxCell id="tG8vpS88pGXPYlAyhWyV-14" value="&lt;font style=&quot;font-size: 21px;&quot;&gt;Xem thời khóa biểu&lt;/font&gt;" style="ellipse;whiteSpace=wrap;html=1;" vertex="1" parent="1">
          <mxGeometry x="1100" y="1210" width="210" height="120" as="geometry" />
        </mxCell>
        <mxCell id="tG8vpS88pGXPYlAyhWyV-15" value="&lt;font style=&quot;font-size: 21px;&quot;&gt;Đăng ký kế hoạch học tập&lt;/font&gt;" style="ellipse;whiteSpace=wrap;html=1;" vertex="1" parent="1">
          <mxGeometry x="1100" y="1410" width="210" height="120" as="geometry" />
        </mxCell>
        <mxCell id="tG8vpS88pGXPYlAyhWyV-16" value="&lt;font face=&quot;Times New Roman&quot; style=&quot;font-size: 26px;&quot;&gt;Online.VLU.VN&lt;/font&gt;" style="text;html=1;align=center;verticalAlign=middle;whiteSpace=wrap;rounded=0;" vertex="1" parent="1">
          <mxGeometry x="1290" y="400" width="190" height="100" as="geometry" />
        </mxCell>
        <mxCell id="tG8vpS88pGXPYlAyhWyV-17" value="" style="endArrow=classic;html=1;rounded=0;exitX=1;exitY=0.3333333333333333;exitDx=0;exitDy=0;exitPerimeter=0;entryX=0;entryY=0.5;entryDx=0;entryDy=0;" edge="1" parent="1" source="tG8vpS88pGXPYlAyhWyV-3" target="tG8vpS88pGXPYlAyhWyV-6">
          <mxGeometry width="50" height="50" relative="1" as="geometry">
            <mxPoint x="1360" y="1070" as="sourcePoint" />
            <mxPoint x="1410" y="1020" as="targetPoint" />
            <Array as="points">
              <mxPoint x="710" y="560" />
            </Array>
          </mxGeometry>
        </mxCell>
        <mxCell id="tG8vpS88pGXPYlAyhWyV-18" value="" style="endArrow=classic;html=1;rounded=0;exitX=1;exitY=0.3333333333333333;exitDx=0;exitDy=0;exitPerimeter=0;entryX=0;entryY=0.5;entryDx=0;entryDy=0;" edge="1" parent="1" source="tG8vpS88pGXPYlAyhWyV-3" target="tG8vpS88pGXPYlAyhWyV-11">
          <mxGeometry width="50" height="50" relative="1" as="geometry">
            <mxPoint x="1360" y="1070" as="sourcePoint" />
            <mxPoint x="1410" y="1020" as="targetPoint" />
            <Array as="points">
              <mxPoint x="720" y="820" />
              <mxPoint x="780" y="750" />
              <mxPoint x="820" y="710" />
            </Array>
          </mxGeometry>
        </mxCell>
        <mxCell id="tG8vpS88pGXPYlAyhWyV-19" value="" style="endArrow=classic;html=1;rounded=0;exitX=1;exitY=0.3333333333333333;exitDx=0;exitDy=0;exitPerimeter=0;entryX=0;entryY=0.5;entryDx=0;entryDy=0;" edge="1" parent="1" source="tG8vpS88pGXPYlAyhWyV-3" target="tG8vpS88pGXPYlAyhWyV-12">
          <mxGeometry width="50" height="50" relative="1" as="geometry">
            <mxPoint x="1360" y="1070" as="sourcePoint" />
            <mxPoint x="1410" y="1020" as="targetPoint" />
            <Array as="points">
              <mxPoint x="840" y="890" />
            </Array>
          </mxGeometry>
        </mxCell>
        <mxCell id="tG8vpS88pGXPYlAyhWyV-20" value="" style="endArrow=classic;html=1;rounded=0;exitX=1;exitY=0.3333333333333333;exitDx=0;exitDy=0;exitPerimeter=0;entryX=0;entryY=0.5;entryDx=0;entryDy=0;" edge="1" parent="1" source="tG8vpS88pGXPYlAyhWyV-3" target="tG8vpS88pGXPYlAyhWyV-13">
          <mxGeometry width="50" height="50" relative="1" as="geometry">
            <mxPoint x="1360" y="1070" as="sourcePoint" />
            <mxPoint x="1410" y="1020" as="targetPoint" />
            <Array as="points">
              <mxPoint x="760" y="1040" />
              <mxPoint x="850" y="1080" />
            </Array>
          </mxGeometry>
        </mxCell>
        <mxCell id="tG8vpS88pGXPYlAyhWyV-21" value="" style="endArrow=classic;html=1;rounded=0;exitX=1;exitY=0.3333333333333333;exitDx=0;exitDy=0;exitPerimeter=0;entryX=0;entryY=0.5;entryDx=0;entryDy=0;" edge="1" parent="1" source="tG8vpS88pGXPYlAyhWyV-3" target="tG8vpS88pGXPYlAyhWyV-15">
          <mxGeometry width="50" height="50" relative="1" as="geometry">
            <mxPoint x="1360" y="1070" as="sourcePoint" />
            <mxPoint x="1410" y="1020" as="targetPoint" />
            <Array as="points">
              <mxPoint x="710" y="1480" />
            </Array>
          </mxGeometry>
        </mxCell>
        <mxCell id="tG8vpS88pGXPYlAyhWyV-22" value="" style="endArrow=classic;html=1;rounded=0;exitX=1;exitY=0.3333333333333333;exitDx=0;exitDy=0;exitPerimeter=0;entryX=0;entryY=0.5;entryDx=0;entryDy=0;" edge="1" parent="1" source="tG8vpS88pGXPYlAyhWyV-3" target="tG8vpS88pGXPYlAyhWyV-14">
          <mxGeometry width="50" height="50" relative="1" as="geometry">
            <mxPoint x="1360" y="1070" as="sourcePoint" />
            <mxPoint x="1410" y="1020" as="targetPoint" />
            <Array as="points">
              <mxPoint x="730" y="1130" />
              <mxPoint x="810" y="1280" />
            </Array>
          </mxGeometry>
        </mxCell>
        <mxCell id="tG8vpS88pGXPYlAyhWyV-23" value="Actor" style="shape=umlActor;verticalLabelPosition=bottom;verticalAlign=top;html=1;outlineConnect=0;" vertex="1" parent="1">
          <mxGeometry x="1910" y="850" width="90" height="200" as="geometry" />
        </mxCell>
        <mxCell id="tG8vpS88pGXPYlAyhWyV-25" value="&lt;font style=&quot;font-size: 21px;&quot;&gt;Phê duyệt đăng ký học phần&lt;/font&gt;" style="ellipse;whiteSpace=wrap;html=1;" vertex="1" parent="1">
          <mxGeometry x="1560" y="500" width="210" height="120" as="geometry" />
        </mxCell>
        <mxCell id="tG8vpS88pGXPYlAyhWyV-26" value="" style="endArrow=classic;html=1;rounded=0;entryX=1;entryY=0.5;entryDx=0;entryDy=0;exitX=0;exitY=0.3333333333333333;exitDx=0;exitDy=0;exitPerimeter=0;" edge="1" parent="1" source="tG8vpS88pGXPYlAyhWyV-23" target="tG8vpS88pGXPYlAyhWyV-6">
          <mxGeometry width="50" height="50" relative="1" as="geometry">
            <mxPoint x="1360" y="1030" as="sourcePoint" />
            <mxPoint x="1410" y="980" as="targetPoint" />
          </mxGeometry>
        </mxCell>
        <mxCell id="tG8vpS88pGXPYlAyhWyV-27" value="" style="endArrow=classic;html=1;rounded=0;entryX=1;entryY=0.5;entryDx=0;entryDy=0;exitX=0;exitY=0.3333333333333333;exitDx=0;exitDy=0;exitPerimeter=0;" edge="1" parent="1" source="tG8vpS88pGXPYlAyhWyV-23" target="tG8vpS88pGXPYlAyhWyV-11">
          <mxGeometry width="50" height="50" relative="1" as="geometry">
            <mxPoint x="1360" y="1030" as="sourcePoint" />
            <mxPoint x="1410" y="980" as="targetPoint" />
          </mxGeometry>
        </mxCell>
        <mxCell id="tG8vpS88pGXPYlAyhWyV-28" value="" style="endArrow=classic;html=1;rounded=0;entryX=1;entryY=0.5;entryDx=0;entryDy=0;exitX=0;exitY=0.3333333333333333;exitDx=0;exitDy=0;exitPerimeter=0;" edge="1" parent="1" source="tG8vpS88pGXPYlAyhWyV-23" target="tG8vpS88pGXPYlAyhWyV-12">
          <mxGeometry width="50" height="50" relative="1" as="geometry">
            <mxPoint x="1360" y="1030" as="sourcePoint" />
            <mxPoint x="1410" y="980" as="targetPoint" />
          </mxGeometry>
        </mxCell>
        <mxCell id="tG8vpS88pGXPYlAyhWyV-29" value="" style="endArrow=classic;html=1;rounded=0;entryX=1;entryY=0.5;entryDx=0;entryDy=0;exitX=0;exitY=0.3333333333333333;exitDx=0;exitDy=0;exitPerimeter=0;" edge="1" parent="1" source="tG8vpS88pGXPYlAyhWyV-23" target="tG8vpS88pGXPYlAyhWyV-15">
          <mxGeometry width="50" height="50" relative="1" as="geometry">
            <mxPoint x="1360" y="1030" as="sourcePoint" />
            <mxPoint x="1410" y="980" as="targetPoint" />
          </mxGeometry>
        </mxCell>
        <mxCell id="tG8vpS88pGXPYlAyhWyV-31" value="&lt;font style=&quot;font-size: 21px;&quot;&gt;Xác Nhận Kế Hoạch Học Tập Của Sinh Viên&lt;/font&gt;" style="ellipse;whiteSpace=wrap;html=1;" vertex="1" parent="1">
          <mxGeometry x="1510" y="1430" width="210" height="120" as="geometry" />
        </mxCell>
        <mxCell id="tG8vpS88pGXPYlAyhWyV-32" value="&lt;font style=&quot;font-size: 21px;&quot;&gt;Cấp Giấy Xác Nhận&lt;/font&gt;" style="ellipse;whiteSpace=wrap;html=1;" vertex="1" parent="1">
          <mxGeometry x="1570" y="1250" width="210" height="120" as="geometry" />
        </mxCell>
        <mxCell id="tG8vpS88pGXPYlAyhWyV-33" value="&lt;font style=&quot;font-size: 21px;&quot;&gt;Xử Lý Yêu Cầu Hủy Học Phần&lt;/font&gt;" style="ellipse;whiteSpace=wrap;html=1;" vertex="1" parent="1">
          <mxGeometry x="1470" y="950" width="210" height="120" as="geometry" />
        </mxCell>
        <mxCell id="tG8vpS88pGXPYlAyhWyV-34" value="" style="endArrow=classic;html=1;rounded=0;entryX=1;entryY=0.5;entryDx=0;entryDy=0;exitX=1;exitY=0.3333333333333333;exitDx=0;exitDy=0;exitPerimeter=0;" edge="1" parent="1" source="tG8vpS88pGXPYlAyhWyV-23" target="tG8vpS88pGXPYlAyhWyV-25">
          <mxGeometry width="50" height="50" relative="1" as="geometry">
            <mxPoint x="1360" y="1020" as="sourcePoint" />
            <mxPoint x="1410" y="970" as="targetPoint" />
          </mxGeometry>
        </mxCell>
        <mxCell id="tG8vpS88pGXPYlAyhWyV-35" value="" style="endArrow=classic;html=1;rounded=0;entryX=1;entryY=0.5;entryDx=0;entryDy=0;exitX=1;exitY=0.3333333333333333;exitDx=0;exitDy=0;exitPerimeter=0;" edge="1" parent="1" source="tG8vpS88pGXPYlAyhWyV-23" target="tG8vpS88pGXPYlAyhWyV-33">
          <mxGeometry width="50" height="50" relative="1" as="geometry">
            <mxPoint x="1360" y="1020" as="sourcePoint" />
            <mxPoint x="1410" y="970" as="targetPoint" />
          </mxGeometry>
        </mxCell>
        <mxCell id="tG8vpS88pGXPYlAyhWyV-36" value="" style="endArrow=classic;html=1;rounded=0;entryX=1;entryY=0.5;entryDx=0;entryDy=0;exitX=1;exitY=0.3333333333333333;exitDx=0;exitDy=0;exitPerimeter=0;" edge="1" parent="1" source="tG8vpS88pGXPYlAyhWyV-23" target="tG8vpS88pGXPYlAyhWyV-32">
          <mxGeometry width="50" height="50" relative="1" as="geometry">
            <mxPoint x="2000" y="930" as="sourcePoint" />
            <mxPoint x="1410" y="970" as="targetPoint" />
          </mxGeometry>
        </mxCell>
        <mxCell id="tG8vpS88pGXPYlAyhWyV-37" value="" style="endArrow=classic;html=1;rounded=0;entryX=1;entryY=0.5;entryDx=0;entryDy=0;exitX=1;exitY=0.3333333333333333;exitDx=0;exitDy=0;exitPerimeter=0;" edge="1" parent="1" source="tG8vpS88pGXPYlAyhWyV-23" target="tG8vpS88pGXPYlAyhWyV-31">
          <mxGeometry width="50" height="50" relative="1" as="geometry">
            <mxPoint x="1360" y="1020" as="sourcePoint" />
            <mxPoint x="1410" y="970" as="targetPoint" />
          </mxGeometry>
        </mxCell>
        <mxCell id="tG8vpS88pGXPYlAyhWyV-38" value="&lt;span style=&quot;font-size: 21px;&quot;&gt;User&lt;/span&gt;" style="text;html=1;align=center;verticalAlign=middle;resizable=0;points=[];autosize=1;strokeColor=none;fillColor=none;" vertex="1" parent="1">
          <mxGeometry x="645" y="833" width="70" height="40" as="geometry" />
        </mxCell>
        <mxCell id="tG8vpS88pGXPYlAyhWyV-39" value="&lt;font style=&quot;font-size: 21px;&quot;&gt;Phòng Đào Tạo&lt;/font&gt;" style="text;html=1;align=center;verticalAlign=middle;resizable=0;points=[];autosize=1;strokeColor=none;fillColor=none;" vertex="1" parent="1">
          <mxGeometry x="2000" y="850" width="170" height="40" as="geometry" />
        </mxCell>
      </root>
    </mxGraphModel>
  </diagram>
</mxfile>
